<svg xmlns="http://www.w3.org/2000/svg" version="1.1" xmlns:xlink="http://www.w3.org/1999/xlink" width="512" height="512" x="0" y="0" viewBox="0 0 512 512" style="enable-background:new 0 0 512 512" xml:space="preserve" class=""><g><g fill-rule="evenodd"><path d="M111.275 246.01 16 245.368v24.5h68.658a6.75 6.75 0 0 1 6.644 5.563L142.98 496h226.056l52.737-220.944a6.746 6.746 0 0 1 6.562-5.19H496v-24.517h-96.254q-25.915 110.46-51.832 220.917a6.74 6.74 0 0 1-6.562 5.211l-170.7.007a6.747 6.747 0 0 1-6.678-5.786q-26.35-109.837-52.699-219.688z" fill="#000000" opacity="1" data-original="#000000" class=""></path><path d="M169.916 432.883a21.272 21.272 0 0 0 3.438.28c5.518 0 11.762-2.62 18-5.239 7.5-3.146 15-6.293 23.222-6.293s15.724 3.147 23.223 6.293c6.243 2.62 12.486 5.239 18 5.239s11.761-2.62 18-5.239c7.5-3.146 15-6.293 23.223-6.293s15.724 3.147 23.222 6.293c6.243 2.62 12.486 5.239 18 5.239a21.374 21.374 0 0 0 3.571-.306l5.413-22.728a37.922 37.922 0 0 1-10.952 1.756c-8.081 0-15.433-3.16-22.783-6.319-6.063-2.606-12.126-5.213-17.459-5.213s-11.4 2.607-17.46 5.213c-7.35 3.159-14.7 6.319-22.782 6.319s-15.433-3.16-22.784-6.319c-6.062-2.606-12.126-5.213-17.459-5.213s-11.4 2.607-17.459 5.213c-7.35 3.159-14.7 6.319-22.783 6.319a37.825 37.825 0 0 1-10.857-1.727zM338.674 446.654c-8.37.115-16.068-3.114-23.637-6.29-6.243-2.619-12.486-5.239-18-5.239s-11.761 2.619-18 5.239c-7.5 3.146-15 6.293-23.222 6.293s-15.724-3.147-23.223-6.293c-6.242-2.619-12.486-5.239-18-5.239s-11.761 2.619-18 5.239c-7.5 3.146-15 6.293-23.223 6.293l2.585 11.334h160.06zM160.681 394.382c5.108 2.149 10.136 4.009 14.641 4.009 5.334 0 11.4-2.606 17.46-5.212 7.35-3.16 14.7-6.32 22.782-6.32s15.433 3.16 22.783 6.32c6.063 2.606 12.127 5.212 17.46 5.212s11.4-2.606 17.459-5.212c7.35-3.16 14.7-6.32 22.783-6.32s15.432 3.16 22.783 6.32c6.062 2.606 12.126 5.212 17.459 5.212 4.507 0 9.537-1.862 14.648-4.012l5.446-23.213c-6.947 3.035-13.921 5.947-21.539 5.947-7.95 0-15.2-3.173-22.449-6.345-5.925-2.593-11.85-5.187-17.073-5.187s-11.149 2.593-17.073 5.187c-7.25 3.172-14.5 6.345-22.45 6.345s-15.2-3.173-22.45-6.345c-5.924-2.593-11.849-5.187-17.073-5.187s-11.149 2.593-17.073 5.187c-7.249 3.172-14.5 6.345-22.45 6.345-7.66 0-14.669-2.945-21.654-6zM151.22 354.934c2.844 1.041 5.653 2.27 8.461 3.5 5.925 2.593 11.85 5.187 17.074 5.187s11.149-2.594 17.073-5.187c7.249-3.172 14.5-6.345 22.45-6.345s15.2 3.173 22.449 6.345c5.925 2.593 11.85 5.187 17.074 5.187s11.148-2.594 17.073-5.187c7.249-3.172 14.5-6.345 22.45-6.345s15.2 3.173 22.449 6.345c5.925 2.594 11.85 5.187 17.073 5.187s11.149-2.594 17.073-5.187c2.713-1.187 5.426-2.374 8.253-3.41l5.256-22.4c-2.7.948-5.47 2.162-8.241 3.377-7.241 3.173-14.483 6.346-22.427 6.346s-15.186-3.173-22.427-6.346c-5.917-2.593-11.835-5.186-17.05-5.186s-11.132 2.585-17.05 5.185c-7.24 3.173-14.482 6.346-22.426 6.346s-15.186-3.177-22.427-6.346c-5.917-2.593-11.836-5.186-17.05-5.186S205.2 333.4 199.28 336c-7.241 3.173-14.482 6.346-22.427 6.346s-15.186-3.173-22.426-6.346c-2.89-1.266-5.78-2.533-8.589-3.5zM157.2 91.139h-7.385a32.744 32.744 0 0 0 0 65.488H359.7a32.744 32.744 0 0 0 0-65.488c-2.195-.009-6.061.288-8.036-.475a6.724 6.724 0 0 1-3.848-8.7 23.434 23.434 0 0 0 1.579-8.624 23.948 23.948 0 0 0-35.634-20.856 6.739 6.739 0 0 1-10.1-3.45 48.808 48.808 0 0 0-89.557-6.7 6.742 6.742 0 0 1-7.613 3.428 34.685 34.685 0 0 0-8.426-1.029 34.436 34.436 0 0 0-34.437 34.436c0 1.808.328 3.556.328 5.222a6.748 6.748 0 0 1-6.756 6.748zM341.772 293.041a6.747 6.747 0 1 0 13.494 0c0-5.2-4.333-8.988-9.335-6.936-3.041 1.295-4.159 3.81-4.159 6.936zM341.772 251.856a6.747 6.747 0 1 0 13.494 0v-13.494a6.747 6.747 0 1 0-13.494 0zM341.772 197.881a6.747 6.747 0 1 0 13.494 0v-13.494a6.747 6.747 0 1 0-13.494 0zM294.892 293.041a6.747 6.747 0 1 0 13.493 0c0-5.2-4.332-8.988-9.335-6.936-3.04 1.295-4.158 3.81-4.158 6.936zM294.892 251.856a6.747 6.747 0 1 0 13.493 0v-13.494a6.747 6.747 0 1 0-13.493 0zM294.892 197.881a6.747 6.747 0 1 0 13.493 0v-13.494a6.747 6.747 0 1 0-13.493 0zM248.011 293.041a6.747 6.747 0 1 0 13.494 0c0-5.2-4.333-8.988-9.335-6.936-3.041 1.295-4.159 3.81-4.159 6.936zM248.011 251.856a6.747 6.747 0 1 0 13.494 0v-13.494a6.747 6.747 0 1 0-13.494 0zM248.011 197.881a6.747 6.747 0 1 0 13.494 0v-13.494a6.747 6.747 0 1 0-13.494 0zM201.131 293.041a6.747 6.747 0 1 0 13.493 0c0-5.2-4.332-8.988-9.335-6.936-3.04 1.295-4.158 3.81-4.158 6.936zM201.131 251.856a6.747 6.747 0 1 0 13.493 0v-13.494a6.747 6.747 0 1 0-13.493 0zM201.131 197.881a6.747 6.747 0 1 0 13.493 0v-13.494a6.747 6.747 0 1 0-13.493 0zM154.25 293.041a6.747 6.747 0 1 0 13.494 0c0-5.2-4.333-8.988-9.335-6.936-3.041 1.295-4.159 3.81-4.159 6.936zM154.25 251.856a6.747 6.747 0 1 0 13.494 0v-13.494a6.747 6.747 0 1 0-13.494 0zM154.25 197.881a6.747 6.747 0 1 0 13.494 0v-13.494a6.747 6.747 0 1 0-13.494 0z" fill="#000000" opacity="1" data-original="#000000" class=""></path></g></g></svg>