<?xml version="1.0" encoding="iso-8859-1"?><!-- Generator: Adobe Illustrator 19.2.0, SVG Export Plug-In . SVG Version: 6.00 Build 0)  --><svg xmlns="http://www.w3.org/2000/svg" xmlns:xlink="http://www.w3.org/1999/xlink" viewBox="0 0 40 40" width="80px" height="80px"><g><path style="fill:#DFF0FE;" d="M14.5,38.5c-7.168,0-13-5.864-13-13.071c0-7.508,10.808-20.991,12.998-23.645   C16.68,4.463,27.5,18.117,27.5,25.429C27.5,32.636,21.668,38.5,14.5,38.5z"/><path style="fill:#4788C7;" d="M14.495,2.576C17.315,6.086,27,18.637,27,25.429C27,32.36,21.393,38,14.5,38   C7.607,38,2,32.36,2,25.429C2,18.453,11.669,6.051,14.495,2.576 M14.5,1C14.5,1,1,16.833,1,25.429C1,32.924,7.044,39,14.5,39   C21.956,39,28,32.924,28,25.429C28,17.06,14.5,1,14.5,1L14.5,1z"/></g><g><path style="fill:#98CCFD;" d="M14.5,38.5c-7.168,0-13-5.864-13-13.071c0-1.995,0.779-4.602,2.315-7.751   C5.077,17.114,6.777,16.5,8.929,16.5c1.841,0,3.484,0.936,5.223,1.927c1.79,1.019,3.64,2.073,5.777,2.073   c1.907,0,3.811-0.627,5.666-1.866c1.265,2.75,1.906,5.035,1.906,6.794C27.5,32.636,21.668,38.5,14.5,38.5z"/><path style="fill:#4788C7;" d="M8.929,17c1.709,0,3.296,0.904,4.976,1.861C15.75,19.913,17.658,21,19.929,21   c1.837,0,3.665-0.549,5.447-1.633C26.454,21.816,27,23.852,27,25.429C27,32.36,21.393,38,14.5,38S2,32.36,2,25.429   c0-1.884,0.735-4.362,2.185-7.368C5.382,17.539,6.963,17,8.929,17 M8.929,16c-2.326,0-4.176,0.699-5.483,1.295   C1.997,20.232,1,23.097,1,25.429C1,32.924,7.044,39,14.5,39C21.956,39,28,32.924,28,25.429c0-2.143-0.888-4.791-2.205-7.544   C24.516,18.818,22.49,20,19.929,20C15.929,20,12.887,16,8.929,16L8.929,16z"/></g><rect x="38" y="3" style="fill:#4788C7;" width="1" height="33"/><path style="fill:#4788C7;" d="M38.5,36h-6c-0.276,0-0.5-0.224-0.5-0.5l0,0c0-0.276,0.224-0.5,0.5-0.5h6c0.276,0,0.5,0.224,0.5,0.5  l0,0C39,35.776,38.776,36,38.5,36z"/><path style="fill:#4788C7;" d="M38.5,20h-6c-0.276,0-0.5-0.224-0.5-0.5l0,0c0-0.276,0.224-0.5,0.5-0.5h6c0.276,0,0.5,0.224,0.5,0.5  l0,0C39,19.776,38.776,20,38.5,20z"/><path style="fill:#4788C7;" d="M38.5,4h-6C32.224,4,32,3.776,32,3.5v0C32,3.224,32.224,3,32.5,3h6C38.776,3,39,3.224,39,3.5v0  C39,3.776,38.776,4,38.5,4z"/><path style="fill:#4788C7;" d="M38.5,32h-3c-0.276,0-0.5-0.224-0.5-0.5v0c0-0.276,0.224-0.5,0.5-0.5h3c0.276,0,0.5,0.224,0.5,0.5v0  C39,31.776,38.776,32,38.5,32z"/><path style="fill:#4788C7;" d="M38.5,28h-3c-0.276,0-0.5-0.224-0.5-0.5v0c0-0.276,0.224-0.5,0.5-0.5h3c0.276,0,0.5,0.224,0.5,0.5v0  C39,27.776,38.776,28,38.5,28z"/><path style="fill:#4788C7;" d="M38.5,24h-3c-0.276,0-0.5-0.224-0.5-0.5v0c0-0.276,0.224-0.5,0.5-0.5h3c0.276,0,0.5,0.224,0.5,0.5v0  C39,23.776,38.776,24,38.5,24z"/><path style="fill:#4788C7;" d="M38.5,16h-3c-0.276,0-0.5-0.224-0.5-0.5v0c0-0.276,0.224-0.5,0.5-0.5h3c0.276,0,0.5,0.224,0.5,0.5v0  C39,15.776,38.776,16,38.5,16z"/><path style="fill:#4788C7;" d="M38.5,12h-3c-0.276,0-0.5-0.224-0.5-0.5v0c0-0.276,0.224-0.5,0.5-0.5h3c0.276,0,0.5,0.224,0.5,0.5v0  C39,11.776,38.776,12,38.5,12z"/><rect x="38" y="3" style="fill:#4788C7;" width="1" height="9"/><path style="fill:#4788C7;" d="M38.5,8h-3C35.224,8,35,7.776,35,7.5v0C35,7.224,35.224,7,35.5,7h3C38.776,7,39,7.224,39,7.5v0  C39,7.776,38.776,8,38.5,8z"/></svg>