<?xml version="1.0" encoding="iso-8859-1"?>
<!-- Generator: Adobe Illustrator 24.1.2, SVG Export Plug-In . SVG Version: 6.00 Build 0)  -->
<svg version="1.1" id="Layer_1" xmlns="http://www.w3.org/2000/svg" xmlns:xlink="http://www.w3.org/1999/xlink" x="0px" y="0px"
	 viewBox="0 0 100 100" style="enable-background:new 0 0 100 100;" xml:space="preserve">
<path style="opacity:0.35;" d="M79.09,62.55c1.8,0.75,3.18,2.29,3.73,4.17c1.93,6.72,2.36,11.67,1.26,14.69
	c-1.05,2.88-3.15,5.17-5.93,6.47c-1.53,0.71-3.16,1.08-4.84,1.08c-1.34,0-2.66-0.24-3.92-0.7c-4.78-1.74-7.7-6.34-7.53-11.17
	c-1.12,2.54-3.08,4.56-5.61,5.74c-1.53,0.71-3.15,1.07-4.83,1.07c-1.33,0-2.65-0.23-3.91-0.69c-2.87-1.04-5.16-3.14-6.45-5.91
	c-0.17-0.35-0.31-0.7-0.43-1.06c0.11,2.08-0.06,3.83-0.55,5.17c-1.05,2.88-3.15,5.17-5.93,6.47c-1.53,0.71-3.16,1.08-4.84,1.08
	c-1.34,0-2.66-0.24-3.92-0.7c-5.94-2.16-9.01-8.75-6.85-14.69c1.37-3.78,6.42-7.76,10.41-10.44c0.07-0.05,0.15-0.08,0.22-0.13H29
	c-10.48,0-19-8.52-19-19c0-9.89,7.42-18.02,17.27-18.92c0.37-0.03,0.77-0.06,1.17-0.07C32.65,16,41.83,10,52,10s19.35,6,23.56,15.01
	c0.41,0.01,0.81,0.04,1.22,0.08C86.58,25.98,94,34.11,94,44C94,53.07,87.6,60.67,79.09,62.55z"/>
<path style="fill:#F2F2F2;" d="M77.09,60.55c1.8,0.75,3.18,2.29,3.73,4.17c1.93,6.72,2.36,11.67,1.26,14.69
	c-1.05,2.88-3.15,5.17-5.93,6.47c-1.53,0.71-3.16,1.08-4.84,1.08c-1.34,0-2.66-0.24-3.92-0.7c-4.78-1.74-7.7-6.34-7.53-11.17
	c-1.12,2.54-3.08,4.56-5.61,5.74c-1.53,0.71-3.15,1.07-4.83,1.07c-1.33,0-2.65-0.23-3.91-0.69c-2.87-1.04-5.16-3.14-6.45-5.91
	c-0.17-0.35-0.31-0.7-0.43-1.06c0.11,2.08-0.06,3.83-0.55,5.17c-1.05,2.88-3.15,5.17-5.93,6.47c-1.53,0.71-3.16,1.08-4.84,1.08
	c-1.34,0-2.66-0.24-3.92-0.7c-5.94-2.16-9.01-8.75-6.85-14.69c1.37-3.78,6.42-7.76,10.41-10.44c0.07-0.05,0.15-0.08,0.22-0.13H27
	C16.52,61,8,52.48,8,42c0-9.89,7.42-18.02,17.27-18.92c0.37-0.03,0.77-0.06,1.17-0.07C30.65,14,39.83,8,50,8s19.35,6,23.56,15.01
	c0.41,0.01,0.81,0.04,1.22,0.08C84.58,23.98,92,32.11,92,42C92,51.07,85.6,58.67,77.09,60.55z"/>
<path style="fill:#94CFFF;" d="M73,29.5c-1.359,0-2.663,0.224-3.888,0.624C67.315,21.212,59.442,14.5,50,14.5
	s-17.315,6.712-19.112,15.624C29.663,29.724,28.359,29.5,27,29.5c-6.904,0-12.5,5.596-12.5,12.5S20.096,54.5,27,54.5
	c0.169,0,45.831,0,46,0c6.904,0,12.5-5.596,12.5-12.5S79.904,29.5,73,29.5z"/>
<path style="fill:#40396E;" d="M73,56H27c-7.72,0-14-6.28-14-14s6.28-14,14-14c0.937,0,1.87,0.095,2.79,0.283
	C32.315,19.339,40.574,13,50,13s17.685,6.339,20.21,15.283C71.13,28.095,72.063,28,73,28c7.72,0,14,6.28,14,14S80.72,56,73,56z
	 M27,31c-6.065,0-11,4.935-11,11s4.935,11,11,11h46c6.065,0,11-4.935,11-11s-4.935-11-11-11c-1.154,0-2.306,0.185-3.422,0.55
	c-0.405,0.135-0.85,0.085-1.222-0.13c-0.37-0.216-0.63-0.579-0.715-0.999C65.956,22.064,58.537,16,50,16
	s-15.956,6.064-17.642,14.421c-0.085,0.42-0.345,0.783-0.715,0.999c-0.371,0.217-0.816,0.264-1.222,0.13
	C29.306,31.185,28.154,31,27,31z"/>
<path style="fill:#2785BD;" d="M54.051,72.155c0.931-2.559-1.39-10.596-1.39-10.596s-6.945,4.665-7.876,7.224
	c-0.931,2.559,0.388,5.388,2.947,6.32C50.29,76.033,53.12,74.714,54.051,72.155z"/>
<path style="fill:#40396E;" d="M49.422,76.902c-0.742,0-1.485-0.13-2.204-0.392c-1.613-0.587-2.902-1.768-3.628-3.324
	c-0.726-1.558-0.802-3.304-0.214-4.918c1.045-2.872,7.222-7.131,8.449-7.955c0.397-0.267,0.9-0.328,1.349-0.164
	c0.45,0.163,0.796,0.532,0.929,0.993c0.41,1.42,2.403,8.651,1.357,11.525l0,0c-0.587,1.614-1.768,2.903-3.324,3.629
	C51.271,76.7,50.348,76.902,49.422,76.902z M51.763,64.027c-2.638,1.946-5.183,4.207-5.568,5.268
	c-0.313,0.861-0.272,1.793,0.114,2.624c0.388,0.83,1.075,1.46,1.936,1.773c0.861,0.313,1.793,0.273,2.624-0.114
	c0.83-0.388,1.46-1.075,1.773-1.936l0,0C53.027,70.581,52.532,67.213,51.763,64.027z"/>
<path style="fill:#2785BD;" d="M75.97,77.189c0.937-2.575-1.399-10.663-1.399-10.663s-6.989,4.694-7.926,7.269
	c-0.937,2.575,0.39,5.422,2.965,6.359C72.185,81.091,75.032,79.764,75.97,77.189z"/>
<path style="fill:#40396E;" d="M71.312,81.957c-0.746,0-1.493-0.131-2.214-0.394c-3.348-1.218-5.08-4.934-3.863-8.281
	c1.052-2.889,7.265-7.173,8.5-8.002c0.396-0.267,0.899-0.327,1.349-0.164c0.45,0.163,0.796,0.532,0.929,0.993
	c0.412,1.429,2.418,8.705,1.367,11.592l0,0c-0.59,1.622-1.776,2.917-3.341,3.646C73.17,81.753,72.242,81.957,71.312,81.957z
	 M73.672,68.994c-2.659,1.961-5.229,4.243-5.618,5.313c-0.652,1.794,0.276,3.784,2.069,4.438c1.793,0.651,3.784-0.275,4.438-2.069
	l0,0C74.949,75.605,74.448,72.205,73.672,68.994z M75.97,77.188h0.01H75.97z"/>
<path style="fill:#2785BD;" d="M31.97,77.189c0.937-2.575-1.399-10.663-1.399-10.663s-6.989,4.694-7.926,7.269
	c-0.937,2.575,0.39,5.422,2.965,6.359S31.032,79.764,31.97,77.189z"/>
<path style="fill:#40396E;" d="M27.312,81.957c-0.746,0-1.493-0.131-2.214-0.394c-3.348-1.218-5.08-4.934-3.863-8.281
	c1.052-2.889,7.265-7.173,8.5-8.002c0.396-0.267,0.899-0.327,1.349-0.164c0.45,0.163,0.796,0.532,0.929,0.993
	c0.412,1.429,2.418,8.705,1.367,11.592l0,0c-0.59,1.622-1.776,2.917-3.341,3.646C29.17,81.753,28.242,81.957,27.312,81.957z
	 M29.672,68.994c-2.659,1.961-5.229,4.243-5.618,5.313c-0.652,1.794,0.276,3.784,2.069,4.438c1.794,0.651,3.783-0.275,4.438-2.069
	l0,0C30.949,75.605,30.448,72.205,29.672,68.994z M31.97,77.188h0.01H31.97z"/>
</svg>